<svg width="720" height="720" viewBox="0 0 720 720" fill="none" xmlns="http://www.w3.org/2000/svg">
<g filter="url(#filter0_b_4_48)">
<path d="M224.2 460.5L234.8 491.1C235 491.7 235.2 492.117 235.4 492.35C235.633 492.55 235.9 492.65 236.2 492.65C236.5 492.65 236.75 492.567 236.95 492.4C237.183 492.2 237.417 491.783 237.65 491.15L248.7 460.5H255L243.1 492.6C242.433 494.4 241.617 495.867 240.65 497C239.717 498.1 238.3 498.65 236.4 498.65C234.433 498.65 232.933 498.117 231.9 497.05C230.9 495.983 230.117 494.683 229.55 493.15L217.5 460.5H224.2ZM285.115 478.85V498H266.615C263.748 498 261.498 497.417 259.865 496.25C258.265 495.083 257.465 493.283 257.465 490.85C257.465 489.217 258.048 487.783 259.215 486.55C260.415 485.283 262.065 483.867 264.165 482.3L276.815 472.75H257.815V468H273.765C277.565 468 280.398 468.983 282.265 470.95C284.165 472.917 285.115 475.55 285.115 478.85ZM266.365 493H279.615V476.65L266.165 486.85C265.232 487.55 264.498 488.15 263.965 488.65C263.432 489.117 263.165 489.783 263.165 490.65C263.165 491.483 263.482 492.083 264.115 492.45C264.748 492.817 265.498 493 266.365 493ZM307.646 486.05L300.296 484.5C297.496 483.9 295.296 482.967 293.696 481.7C292.129 480.4 291.346 478.583 291.346 476.25C291.346 473.783 292.262 471.8 294.096 470.3C295.929 468.767 298.679 468 302.346 468H317.446V472.75H301.346C299.646 472.75 298.496 473.067 297.896 473.7C297.296 474.333 296.996 475.083 296.996 475.95C296.996 476.883 297.312 477.633 297.946 478.2C298.579 478.733 299.729 479.167 301.396 479.5L308.646 481C311.746 481.633 314.146 482.567 315.846 483.8C317.579 485 318.446 486.85 318.446 489.35C318.446 491.95 317.496 494.05 315.596 495.65C313.696 497.217 310.596 498 306.296 498H291.846V493.25H307.596C309.696 493.25 311.112 492.933 311.846 492.3C312.579 491.633 312.946 490.783 312.946 489.75C312.946 488.75 312.562 488 311.796 487.5C311.029 486.967 309.646 486.483 307.646 486.05ZM336.893 490.4C337.027 490.633 337.177 490.817 337.343 490.95C337.51 491.083 337.677 491.15 337.843 491.15C338.01 491.15 338.177 491.083 338.343 490.95C338.51 490.817 338.643 490.633 338.743 490.4L347.743 468H353.793L340.943 498.65C339.843 501.25 338.477 503.033 336.843 504C335.243 505 333.093 505.5 330.393 505.5H323.493V500.9H330.343C331.943 500.9 333.127 500.633 333.893 500.1C334.66 499.6 335.243 498.883 335.643 497.95L336.643 495.5H336.393C335.46 495.5 334.577 495.25 333.743 494.75C332.91 494.217 332.177 493.267 331.543 491.9L320.693 468H326.993L336.893 490.4ZM384.187 478.85V498H365.687C362.82 498 360.57 497.417 358.937 496.25C357.337 495.083 356.537 493.283 356.537 490.85C356.537 489.217 357.12 487.783 358.287 486.55C359.487 485.283 361.137 483.867 363.237 482.3L375.887 472.75H356.887V468H372.837C376.637 468 379.47 468.983 381.337 470.95C383.237 472.917 384.187 475.55 384.187 478.85ZM365.437 493H378.687V476.65L365.237 486.85C364.304 487.55 363.57 488.15 363.037 488.65C362.504 489.117 362.237 489.783 362.237 490.65C362.237 491.483 362.554 492.083 363.187 492.45C363.82 492.817 364.57 493 365.437 493Z" fill="#EB1414"/>
<path d="M436.106 498L431.006 492.2L430.206 493.2C428.706 495.1 427.206 496.383 425.706 497.05C424.24 497.683 422.24 498 419.706 498H414.056C410.59 498 407.99 497.217 406.256 495.65C404.523 494.05 403.656 491.717 403.656 488.65V485.5C403.656 482.533 404.623 480.233 406.556 478.6C408.49 476.933 411.106 476.1 414.406 476.1H416.856L414.906 473.9C414.006 472.867 413.373 471.867 413.006 470.9C412.64 469.933 412.456 468.933 412.456 467.9C412.456 465.933 413.19 464.217 414.656 462.75C416.123 461.25 418.256 460.5 421.056 460.5H436.106V465.75H421.056C420.09 465.75 419.356 466 418.856 466.5C418.356 466.967 418.106 467.583 418.106 468.35C418.106 468.783 418.173 469.183 418.306 469.55C418.473 469.883 418.723 470.233 419.056 470.6L430.856 484L436.906 476.45H443.556L434.356 488L443.156 498H436.106ZM419.956 492.9C421.556 492.9 422.723 492.717 423.456 492.35C424.223 491.95 425.006 491.25 425.806 490.25L427.456 488.2L421.156 481H413.456C412.023 481 410.99 481.3 410.356 481.9C409.723 482.467 409.406 483.467 409.406 484.9V488.8C409.406 490.267 409.756 491.317 410.456 491.95C411.156 492.583 412.056 492.9 413.156 492.9H419.956Z" fill="black"/>
<path d="M492.864 493V498H476.314C473.381 498 470.864 497.617 468.764 496.85C466.664 496.083 464.948 494.983 463.614 493.55C462.314 492.117 461.348 490.4 460.714 488.4C460.114 486.367 459.814 484.1 459.814 481.6V476.9C459.814 474.4 460.114 472.15 460.714 470.15C461.348 468.117 462.314 466.383 463.614 464.95C464.948 463.517 466.664 462.417 468.764 461.65C470.864 460.883 473.381 460.5 476.314 460.5H492.614V465.5H475.564C472.098 465.5 469.648 466.333 468.214 468C466.781 469.633 466.064 472.133 466.064 475.5V483C466.064 486.367 466.781 488.883 468.214 490.55C469.648 492.183 472.098 493 475.564 493H492.864ZM528.469 480.55V485.45C528.469 489.617 527.319 492.867 525.019 495.2C522.719 497.5 519.352 498.65 514.919 498.65H511.169C506.502 498.65 503.069 497.5 500.869 495.2C498.702 492.867 497.619 489.617 497.619 485.45V480.55C497.619 476.383 498.702 473.15 500.869 470.85C503.069 468.517 506.502 467.35 511.169 467.35H514.919C519.352 467.35 522.719 468.517 525.019 470.85C527.319 473.15 528.469 476.383 528.469 480.55ZM522.719 479.8C522.719 477.133 522.202 475.183 521.169 473.95C520.169 472.717 518.319 472.1 515.619 472.1H510.419C507.886 472.1 506.069 472.717 504.969 473.95C503.902 475.183 503.369 477.133 503.369 479.8V486.2C503.369 488.867 503.902 490.817 504.969 492.05C506.069 493.283 507.886 493.9 510.419 493.9H515.619C518.319 493.9 520.169 493.283 521.169 492.05C522.202 490.817 522.719 488.867 522.719 486.2V479.8Z" fill="#EB1414"/>
<path opacity="0.36" d="M0.5 0.5H719.5V719.5H0.5V0.5Z" fill="white" stroke="white"/>
<circle cx="366" cy="300" r="150" fill="#EB1414"/>
<ellipse cx="367" cy="298" rx="104" ry="105" transform="rotate(-90 367 298)" fill="white"/>
<rect x="428" y="240" width="220" height="118" fill="white"/>
<circle cx="482" cy="299" r="56" fill="#EB1414"/>
<circle cx="482" cy="299" r="30" fill="white"/>
<path d="M388 385.123L358 385.123L393 213L423 213L388 385.123Z" fill="#EB1414"/>
<path d="M344 385L373 385L338 212.877L308 212.877L344 385Z" fill="#EB1414"/>
</g>
<defs>
<filter id="filter0_b_4_48" x="-4" y="-4" width="728" height="728" filterUnits="userSpaceOnUse" color-interpolation-filters="sRGB">
<feFlood flood-opacity="0" result="BackgroundImageFix"/>
<feGaussianBlur in="BackgroundImageFix" stdDeviation="2"/>
<feComposite in2="SourceAlpha" operator="in" result="effect1_backgroundBlur_4_48"/>
<feBlend mode="normal" in="SourceGraphic" in2="effect1_backgroundBlur_4_48" result="shape"/>
</filter>
</defs>
</svg>
